<?xml version="1.0" encoding="UTF-8" standalone="no"?>
<!-- Uploaded to: SVG Repo, www.svgrepo.com, Generator: SVG Repo Mixer Tools -->

<svg
   aria-label="PDF"
   role="img"
   viewBox="0 0 512 512"
   version="1.1"
   id="svg1"
   sodipodi:docname="pdf.svg"
   inkscape:version="1.4.4 (dcaf3e7, 2026-05-05)"
   xmlns:inkscape="http://www.inkscape.org/namespaces/inkscape"
   xmlns:sodipodi="http://sodipodi.sourceforge.net/DTD/sodipodi-0.dtd"
   xmlns="http://www.w3.org/2000/svg"
   xmlns:svg="http://www.w3.org/2000/svg">
  <defs
     id="defs1" />
  <sodipodi:namedview
     id="namedview1"
     pagecolor="#ffffff"
     bordercolor="#000000"
     borderopacity="0.25"
     inkscape:showpageshadow="2"
     inkscape:pageopacity="0.0"
     inkscape:pagecheckerboard="0"
     inkscape:deskcolor="#d1d1d1"
     inkscape:zoom="1.5761719"
     inkscape:cx="256"
     inkscape:cy="256"
     inkscape:window-width="1920"
     inkscape:window-height="1009"
     inkscape:window-x="-8"
     inkscape:window-y="-8"
     inkscape:window-maximized="1"
     inkscape:current-layer="svg1" />
  <rect
     width="512"
     height="512"
     rx="15%"
     fill="#c80a0a"
     id="rect1" />
  <path
     fill="#ffffff"
     d="M413 302c-9-10-29-15-56-15-16 0-33 2-53 5a252 252 0 0 1-52-69c10-30 17-59 17-81 0-17-6-44-30-44-7 0-13 4-17 10-10 18-6 58 13 100a898 898 0 0 1-50 117c-53 22-88 46-91 65-2 9 4 24 25 24 31 0 65-45 91-91a626 626 0 0 1 92-24c38 33 71 38 87 38 32 0 35-23 24-35zM227 111c8-12 26-8 26 16 0 16-5 42-15 72-18-42-18-75-11-88zM100 391c3-16 33-38 80-57-26 44-52 72-68 72-10 0-13-9-12-15zm197-98a574 574 0 0 0-83 22 453 453 0 0 0 36-84 327 327 0 0 0 47 62zm13 4c32-5 59-4 71-2 29 6 19 41-13 33-23-5-42-18-58-31z"
     id="path1" />
</svg>
