<?xml version="1.0" encoding="UTF-8" standalone="no"?>
<!-- Uploaded to: SVG Repo, www.svgrepo.com, Generator: SVG Repo Mixer Tools -->

<svg
   version="1.1"
   id="Layer_1"
   viewBox="0 0 505 505"
   xml:space="preserve"
   sodipodi:docname="text.svg"
   inkscape:version="1.4.4 (dcaf3e7, 2026-05-05)"
   xmlns:inkscape="http://www.inkscape.org/namespaces/inkscape"
   xmlns:sodipodi="http://sodipodi.sourceforge.net/DTD/sodipodi-0.dtd"
   xmlns="http://www.w3.org/2000/svg"
   xmlns:svg="http://www.w3.org/2000/svg"><defs
   id="defs12" /><sodipodi:namedview
   id="namedview12"
   pagecolor="#ffffff"
   bordercolor="#000000"
   borderopacity="0.25"
   inkscape:showpageshadow="2"
   inkscape:pageopacity="0.0"
   inkscape:pagecheckerboard="0"
   inkscape:deskcolor="#d1d1d1"
   inkscape:zoom="1.5980198"
   inkscape:cx="252.18711"
   inkscape:cy="251.87423"
   inkscape:window-width="1920"
   inkscape:window-height="1009"
   inkscape:window-x="-8"
   inkscape:window-y="-8"
   inkscape:window-maximized="1"
   inkscape:current-layer="Layer_1" />
<g
   inkscape:groupmode="layer"
   id="layer1"
   inkscape:label="Layer 1"
   sodipodi:insensitive="true"><rect
     style="fill:#21d0c3;stroke-width:10.3002;stroke-linecap:round;stroke-miterlimit:3.4;paint-order:stroke markers fill"
     id="rect12"
     width="505"
     height="505"
     x="0"
     y="0"
     rx="110"
     ry="110"
     sodipodi:insensitive="true" /></g>


<g
   id="g14"
   transform="matrix(1.3138138,0,0,1.3138138,-81.208707,-63.078075)"
   sodipodi:insensitive="true"><path
     style="fill:#ffffff"
     d="m 360.5,85.1 c 1.1,5.1 -0.1,10.9 -1.3,16.2 2,2.1 3.2,4.9 3.2,8 0,6.4 -5.2,11.6 -11.6,11.6 -6.4,0 -11.6,-5.2 -11.6,-11.6 0,-4.7 2.8,-8.7 6.8,-10.6 0.3,-1.4 0.6,-2.7 0.8,-4.1 0.3,-1.8 0.5,-3.6 0.6,-5.4 0,-0.8 -0.6,-2.5 0.4,-1.4 -0.8,-0.9 -1.3,-1.8 -1.5,-2.7 h -53 c -0.2,4.8 -0.8,9.5 -1.3,14.2 3.5,2 5.8,5.7 5.8,10 0,6.4 -5.2,11.6 -11.6,11.6 -6.4,0 -11.6,-5.2 -11.6,-11.6 0,-3.5 1.5,-6.5 3.9,-8.7 0.6,-5.2 1.3,-10.4 1.5,-15.6 h -51.6 c -2.1,5 -0.9,9.9 -0.1,14.8 2.9,2.1 4.9,5.5 4.9,9.4 0,6.4 -5.2,11.6 -11.6,11.6 -6.4,0 -11.6,-5.2 -11.6,-11.6 0,-3.9 2,-7.4 5,-9.5 -0.5,-2.4 -1.2,-4.9 -1.1,-7 0,-2.7 0.3,-5.2 0.9,-7.7 h -53.2 c 0.4,4.5 -0.9,10.8 1.5,14.2 0.1,0.1 0.1,0.2 0.2,0.3 3.2,2.1 5.4,5.7 5.4,9.8 0,6.4 -5.2,11.6 -11.6,11.6 -6.4,0 -11.6,-5.2 -11.6,-11.6 0,-3.4 1.5,-6.5 3.9,-8.6 -0.7,-3 -0.5,-6.1 -0.5,-9.3 0,-2.5 -0.3,-4.5 -1,-6.3 h -26.7 v 310.3 h 266 V 85.1 Z"
     id="path1"
     sodipodi:insensitive="true" /><g
     id="g13"
     sodipodi:insensitive="true"><g
       id="g2">
	<rect
   x="120.8"
   y="149.89999"
   style="fill:#ff7058"
   width="266"
   height="2.9000001"
   id="rect1" />
	<rect
   x="120.8"
   y="142.60001"
   style="fill:#ff7058"
   width="266"
   height="2.9000001"
   id="rect2" />
</g></g><g
     id="g9">
	<rect
   x="120.8"
   y="181"
   style="fill:#ced5e0"
   width="266"
   height="2.9000001"
   id="rect3" />
	<rect
   x="120.8"
   y="211.8"
   style="fill:#ced5e0"
   width="266"
   height="2.9000001"
   id="rect4" />
	<rect
   x="120.8"
   y="242.7"
   style="fill:#ced5e0"
   width="266"
   height="2.9000001"
   id="rect5" />
	<rect
   x="120.8"
   y="273.60001"
   style="fill:#ced5e0"
   width="266"
   height="2.9000001"
   id="rect6" />
	<rect
   x="120.8"
   y="304.5"
   style="fill:#ced5e0"
   width="266"
   height="2.9000001"
   id="rect7" />
	<rect
   x="120.8"
   y="335.29999"
   style="fill:#ced5e0"
   width="266"
   height="2.9000001"
   id="rect8" />
	<rect
   x="120.8"
   y="366.20001"
   style="fill:#ced5e0"
   width="266"
   height="2.9000001"
   id="rect9" />
</g></g>


<g
   id="g12"
   transform="matrix(0.81048583,0.2811473,-0.2811473,0.81048583,136.38818,-96.342511)"><path
     style="fill:#f1543f"
     d="m 254.5,308.9 -41.1,30.8 -5.1,62.1 3.3,1.9 22.9,-39.2 c -1.9,-2.4 -2.4,-5.8 -0.7,-8.6 2.1,-3.6 6.8,-4.8 10.3,-2.7 3.6,2.1 4.8,6.7 2.7,10.3 -1.6,2.8 -4.8,4.1 -7.8,3.6 l -22.9,39.2 3.3,1.9 51.6,-34.8 6.7,-51 z"
     id="path9" /><g
     id="g11">
	<path
   style="fill:#324a5e"
   d="m 326.5,290.3 c -33,56.4 -47,45.4 -65.7,34.4 -18.7,-11 -35.2,-17.7 -2.1,-74.1 33,-56.4 103,-141.1 121.8,-130.2 18.7,11 -20.9,113.5 -54,169.9 z"
   id="path10" />
	<path
   style="fill:#324a5e"
   d="m 331.7,262.4 c -16.7,-11.2 -34.2,-18.6 -51.8,-28.1 -3,-1.6 -5.2,-3.9 -6.8,-6.6 -5.3,8 -10.2,15.7 -14.4,23 -33,56.4 -16.6,63.2 2.1,74.1 18.7,11 32.7,22 65.7,-34.4 4.5,-7.7 9.1,-16.3 13.7,-25.4 -3,-0.1 -6,-0.9 -8.5,-2.6 z"
   id="path11" />
</g><path
     style="fill:#2b3b4e"
     d="m 335.7,273.9 c 2.6,-4.8 5.1,-9.9 7.7,-15 L 278,220.6 c -3.3,4.7 -6.4,9.4 -9.4,14 z"
     id="path12" /></g>
<text
   xml:space="preserve"
   style="font-style:italic;font-stretch:condensed;font-size:37.3333px;font-family:Arial;-inkscape-font-specification:'Arial, Italic Condensed';writing-mode:lr-tb;direction:ltr;fill:#000000;stroke-width:10;stroke-linecap:round;stroke-miterlimit:3.4;paint-order:stroke markers fill"
   x="84.479553"
   y="122.65179"
   id="text1"><tspan
     sodipodi:role="line"
     id="tspan1"
     x="84.479553"
     y="122.65179">memo：</tspan><tspan
     sodipodi:role="line"
     x="84.479553"
     y="169.31842"
     id="tspan2" /></text></svg>
